Coordinates
version=1
nRows=16
nColumns=22
inDegrees=yes

Units are S.I. units (second, meters, Newtons, ...)
If the header above contains a line with 'inDegrees', this indicates whether rotational values are in degrees (yes) or radians (no).

endheader
time	pelvis_tilt	pelvis_list	pelvis_rotation	pelvis_tx	pelvis_ty	pelvis_tz	hip_flexion_r	hip_adduction_r	hip_rotation_r	knee_angle_r	ankle_angle_r	subtalar_angle_r	hip_flexion_l	hip_adduction_l	hip_rotation_l	knee_angle_l	ankle_angle_l	subtalar_angle_l	lumbar_extension	lumbar_bending	lumbar_rotation
      1.40000000	     -3.37410324	     -2.15224700	     -1.09544076	     -1.19541299	      0.95576414	      0.37809353	     10.84343558	      2.31028661	     -5.15492461	    -21.12104434	     13.72186178	     -1.33236826	     10.12283774	     -2.17761668	     -4.54467594	    -20.83309677	     12.08774250	     -6.67825419	     -4.23721867	      0.57336625	     -2.04978200
      1.41000000	     -3.38069997	     -2.10136264	     -1.11203340	     -1.19502581	      0.95569077	      0.37861908	     10.87872279	      2.29624129	     -5.09585577	    -21.22253554	     13.86450082	     -1.54099291	     10.08506521	     -2.15958026	     -4.57523545	    -20.80542009	     12.12420329	     -6.61704590	     -4.24422343	      0.52740929	     -2.07054896
      1.42000000	     -3.38216945	     -2.09812418	     -1.11095155	     -1.19464656	      0.95563492	      0.37918359	     10.89330098	      2.33695970	     -5.04755610	    -21.29701249	     13.97070231	     -1.59812121	     10.05795595	     -2.19329662	     -4.56719717	    -20.80367430	     12.14570890	     -6.60515213	     -4.26848362	      0.53525896	     -2.10363781
      1.43000000	     -3.38944425	     -2.07927067	     -1.12543687	     -1.19420867	      0.95556853	      0.37980455	     10.91294068	      2.36416124	     -4.99224692	    -21.37640137	     14.08757404	     -1.67259300	     10.02307085	     -2.21561583	     -4.58471573	    -20.78700227	     12.17496273	     -6.58461992	     -4.28087778	      0.52712395	     -2.13710467
      1.44000000	     -3.40312019	     -2.06945130	     -1.13615952	     -1.19376168	      0.95551182	      0.38047288	     10.93572141	      2.40222555	     -4.95602684	    -21.44875583	     14.14207187	     -1.70023688	      9.98837670	     -2.24983698	     -4.59626589	    -20.75552428	     12.18250032	     -6.57490819	     -4.29289993	      0.52934414	     -2.19162024
      1.45000000	     -3.42157545	     -2.04070870	     -1.17747328	     -1.19327008	      0.95541879	      0.38123912	     10.95515879	      2.43273029	     -4.87247324	    -21.51319359	     14.31792231	     -1.79645676	      9.95820012	     -2.27286594	     -4.63599729	    -20.74021278	     12.22528158	     -6.54158266	     -4.29736935	      0.50597995	     -2.19506123
      1.46000000	     -3.44703631	     -2.01481642	     -1.22343327	     -1.19274378	      0.95533092	      0.38205597	     10.98194128	      2.46777527	     -4.79932620	    -21.58023987	     14.43401046	     -1.88588114	      9.92276556	     -2.30221228	     -4.68266921	    -20.70559004	     12.25249598	     -6.50007827	     -4.29399455	      0.48808270	     -2.21354271
      1.47000000	     -3.47666147	     -1.98944582	     -1.27050331	     -1.19217594	      0.95523857	      0.38291664	     11.00470344	      2.50468180	     -4.73690136	    -21.63774130	     14.54571977	     -1.95559179	      9.88641848	     -2.33413696	     -4.72521452	    -20.66734373	     12.27862619	     -6.46328963	     -4.28510664	      0.47393587	     -2.23928683
      1.48000000	     -3.51036728	     -1.96017855	     -1.32170503	     -1.19156396	      0.95513956	      0.38383038	     11.02671210	      2.54024250	     -4.67757064	    -21.69216871	     14.66324763	     -2.00924974	      9.84607293	     -2.36518327	     -4.77194349	    -20.62065563	     12.30448215	     -6.42845972	     -4.27031360	      0.45699090	     -2.26552143
      1.49000000	     -3.54804961	     -1.92605739	     -1.37706664	     -1.19090660	      0.95503362	      0.38479700	     11.04793036	      2.57358802	     -4.61921963	    -21.74365845	     14.78632299	     -2.04878550	      9.80075763	     -2.39456299	     -4.82470808	    -20.56416026	     12.32985095	     -6.39377246	     -4.25046837	      0.43641190	     -2.29251723
      1.50000000	     -3.58890799	     -1.88713845	     -1.43732308	     -1.19019992	      0.95492107	      0.38581407	     11.06683267	      2.60447738	     -4.56078564	    -21.79136441	     14.91511276	     -2.07557950	      9.74970802	     -2.42206026	     -4.88268867	    -20.49896604	     12.35515300	     -6.35918996	     -4.22631560	      0.41331742	     -2.32070968
      1.51000000	     -3.63190655	     -1.84363791	     -1.50086753	     -1.18944231	      0.95480179	      0.38689001	     11.08195054	      2.63442827	     -4.49728869	    -21.83534002	     15.05246100	     -2.09289955	      9.69272513	     -2.44937363	     -4.94680371	    -20.42599034	     12.38190525	     -6.32377303	     -4.19846760	      0.38601024	     -2.34838452
      1.52000000	     -3.67592911	     -1.79653598	     -1.57140873	     -1.18863144	      0.95467590	      0.38802157	     11.09186710	      2.66522425	     -4.42397064	    -21.87495914	     15.19659565	     -2.10432642	      9.62983289	     -2.47640174	     -5.01652071	    -20.34980198	     12.41116690	     -6.28627525	     -4.16927884	      0.35789321	     -2.37551646
      1.53000000	     -3.71898186	     -1.74865271	     -1.64634660	     -1.18776724	      0.95454395	      0.38922059	     11.09297998	      2.70204818	     -4.33696660	    -21.90844760	     15.34576152	     -2.11409927	      9.56345398	     -2.50697684	     -5.08860689	    -20.27745355	     12.44464257	     -6.24689209	     -4.13984305	      0.32864248	     -2.39939610
      1.54000000	     -3.76021978	     -1.70136238	     -1.73522154	     -1.18684474	      0.95440434	      0.39048638	     11.08386820	      2.74690609	     -4.22415742	    -21.93493538	     15.50748127	     -2.12771403	      9.49299760	     -2.54301718	     -5.16650555	    -20.21331849	     12.48708650	     -6.20099770	     -4.11274431	      0.30369690	     -2.41782616
      1.55000000	     -3.79776609	     -1.66017013	     -1.83126673	     -1.18586906	      0.95425628	      0.39182869	     11.06082054	      2.80751997	     -4.08662260	    -21.95167215	     15.67088276	     -2.14935276	      9.42395430	     -2.59118498	     -5.24358413	    -20.16875450	     12.53966016	     -6.14856626	     -4.09085861	      0.28485405	     -2.42903399
